<svg xmlns="http://www.w3.org/2000/svg" style="display:none">
  <!-- GitHub -->
  <symbol id="i-github" viewBox="0 0 24 24" fill="none" stroke="currentColor" stroke-width="1.8" stroke-linecap="round" stroke-linejoin="round">
    <path d="M15 22v-4a4.8 4.8 0 0 0-1-3.5c3.3-.4 6.8-1.6 6.8-7.3a5.7 5.7 0 0 0-1.5-4 5.3 5.3 0 0 0-.1-4s-1.2-.4-4 1.5a13.7 13.7 0 0 0-7.3 0C6.2 2 5 2.3 5 2.3a5.3 5.3 0 0 0-.1 4 5.7 5.7 0 0 0-1.5 4c0 5.7 3.4 6.9 6.7 7.3a4.8 4.8 0 0 0-1 3.4V22"/>
    <path d="M9 18.3c-4 .9-4-2.4-6-3.4"/>
  </symbol>

  <!-- Arrow right-up -->
  <symbol id="i-arrow" viewBox="0 0 24 24" fill="none" stroke="currentColor" stroke-width="1.8" stroke-linecap="round" stroke-linejoin="round">
    <path d="M7 17 17 7"/><path d="M8 7h9v9"/>
  </symbol>

  <!-- Map pin -->
  <symbol id="i-pin" viewBox="0 0 24 24" fill="none" stroke="currentColor" stroke-width="1.8" stroke-linecap="round" stroke-linejoin="round">
    <path d="M20 10c0 6-8 12-8 12s-8-6-8-12a8 8 0 0 1 16 0Z"/>
    <circle cx="12" cy="10" r="3"/>
  </symbol>

  <!-- Clock -->
  <symbol id="i-clock" viewBox="0 0 24 24" fill="none" stroke="currentColor" stroke-width="1.8" stroke-linecap="round" stroke-linejoin="round">
    <circle cx="12" cy="12" r="9"/><path d="M12 7v5l3 2"/>
  </symbol>

  <!-- Terminal -->
  <symbol id="i-term" viewBox="0 0 24 24" fill="none" stroke="currentColor" stroke-width="1.8" stroke-linecap="round" stroke-linejoin="round">
    <rect x="2.5" y="4" width="19" height="16" rx="2.5"/>
    <path d="m7 9 3 3-3 3"/><path d="M13 15h4"/>
  </symbol>

  <!-- Code brackets -->
  <symbol id="i-code" viewBox="0 0 24 24" fill="none" stroke="currentColor" stroke-width="1.8" stroke-linecap="round" stroke-linejoin="round">
    <path d="m8 6-6 6 6 6"/><path d="m16 6 6 6-6 6"/><path d="m13.5 4-3 16"/>
  </symbol>

  <!-- Database -->
  <symbol id="i-db" viewBox="0 0 24 24" fill="none" stroke="currentColor" stroke-width="1.8" stroke-linecap="round" stroke-linejoin="round">
    <ellipse cx="12" cy="5" rx="8" ry="3"/>
    <path d="M4 5v6c0 1.7 3.6 3 8 3s8-1.3 8-3V5"/>
    <path d="M4 11v6c0 1.7 3.6 3 8 3s8-1.3 8-3v-6"/>
  </symbol>

  <!-- Router / network -->
  <symbol id="i-router" viewBox="0 0 24 24" fill="none" stroke="currentColor" stroke-width="1.8" stroke-linecap="round" stroke-linejoin="round">
    <rect x="2.5" y="14" width="19" height="6.5" rx="2"/>
    <path d="M7 17.25h.01M11 17.25h.01"/>
    <path d="M8 14v-1a4 4 0 0 1 8 0v1"/>
    <path d="m12 4 3 3-3 3"/><path d="m12 4-3 3 3 3"/>
  </symbol>

  <!-- Coins / payments -->
  <symbol id="i-coins" viewBox="0 0 24 24" fill="none" stroke="currentColor" stroke-width="1.8" stroke-linecap="round" stroke-linejoin="round">
    <circle cx="8" cy="8" r="5.5"/>
    <path d="M18.1 10.4a5.5 5.5 0 1 1-7.7 7.7"/>
    <path d="M8 6v4"/><path d="M6 8h4"/>
  </symbol>

  <!-- Gear -->
  <symbol id="i-gear" viewBox="0 0 24 24" fill="none" stroke="currentColor" stroke-width="1.8" stroke-linecap="round" stroke-linejoin="round">
    <circle cx="12" cy="12" r="3.2"/>
    <path d="M19.4 15a1.7 1.7 0 0 0 .34 1.87l.06.06a2 2 0 1 1-2.83 2.83l-.06-.06a1.7 1.7 0 0 0-1.87-.34 1.7 1.7 0 0 0-1 1.55V21a2 2 0 1 1-4 0v-.09a1.7 1.7 0 0 0-1.1-1.55 1.7 1.7 0 0 0-1.88.34l-.06.06a2 2 0 1 1-2.83-2.83l.06-.06a1.7 1.7 0 0 0 .34-1.87 1.7 1.7 0 0 0-1.55-1H3a2 2 0 1 1 0-4h.09a1.7 1.7 0 0 0 1.55-1.1 1.7 1.7 0 0 0-.34-1.88l-.06-.06A2 2 0 1 1 7.07 3.8l.06.06a1.7 1.7 0 0 0 1.87.34h.01a1.7 1.7 0 0 0 1-1.55V2.5a2 2 0 1 1 4 0v.09a1.7 1.7 0 0 0 1 1.55 1.7 1.7 0 0 0 1.87-.34l.06-.06a2 2 0 1 1 2.83 2.83l-.06.06a1.7 1.7 0 0 0-.34 1.87v.01a1.7 1.7 0 0 0 1.55 1H21a2 2 0 1 1 0 4h-.09a1.7 1.7 0 0 0-1.51 1Z"/>
  </symbol>

  <!-- Cloud / automation -->
  <symbol id="i-cloud" viewBox="0 0 24 24" fill="none" stroke="currentColor" stroke-width="1.8" stroke-linecap="round" stroke-linejoin="round">
    <path d="M17.5 19a4.5 4.5 0 0 0 .4-9 7 7 0 0 0-13.3 2A4.6 4.6 0 0 0 6 19h11.5Z"/>
  </symbol>

  <!-- Brain / AI -->
  <symbol id="i-brain" viewBox="0 0 24 24" fill="none" stroke="currentColor" stroke-width="1.8" stroke-linecap="round" stroke-linejoin="round">
    <path d="M9.5 2a2.5 2.5 0 0 0-2.5 2.5v.55A3.5 3.5 0 0 0 4.5 8.5a3.5 3.5 0 0 0-1 6.86A3.5 3.5 0 0 0 7 18.9V19.5a2.5 2.5 0 0 0 5 0V4.5A2.5 2.5 0 0 0 9.5 2Z"/>
    <path d="M14.5 2a2.5 2.5 0 0 1 2.5 2.5v.55A3.5 3.5 0 0 1 19.5 8.5a3.5 3.5 0 0 1 1 6.86A3.5 3.5 0 0 1 17 18.9V19.5a2.5 2.5 0 0 1-5 0"/>
  </symbol>

  <!-- Briefcase -->
  <symbol id="i-brief" viewBox="0 0 24 24" fill="none" stroke="currentColor" stroke-width="1.8" stroke-linecap="round" stroke-linejoin="round">
    <rect x="2.5" y="7" width="19" height="13.5" rx="2.5"/>
    <path d="M8.5 7V5a2.5 2.5 0 0 1 2.5-2.5h2A2.5 2.5 0 0 1 15.5 5v2"/>
    <path d="M2.5 12.5h19"/>
  </symbol>

  <!-- Rocket -->
  <symbol id="i-rocket" viewBox="0 0 24 24" fill="none" stroke="currentColor" stroke-width="1.8" stroke-linecap="round" stroke-linejoin="round">
    <path d="M4.5 16.5c-1.5 1.3-2 5-2 5s3.7-.5 5-2c.7-.8.7-2 0-2.8a2 2 0 0 0-3-.2Z"/>
    <path d="M12 15l-3-3a22 22 0 0 1 2-3.9A12.3 12.3 0 0 1 21.8 2a12.3 12.3 0 0 1-6 10.9 22 22 0 0 1-3.9 2Z"/>
    <path d="M9 12H4.7a1 1 0 0 0-.9.5L2 16"/><path d="M12 9l3 3"/>
    <circle cx="14.5" cy="9.5" r="1.2"/>
  </symbol>

  <!-- External link -->
  <symbol id="i-ext" viewBox="0 0 24 24" fill="none" stroke="currentColor" stroke-width="1.8" stroke-linecap="round" stroke-linejoin="round">
    <path d="M14 4h6v6"/><path d="M20 4 11 13"/><path d="M19 14v5a2 2 0 0 1-2 2H6a2 2 0 0 1-2-2V8a2 2 0 0 1 2-2h5"/>
  </symbol>

  <!-- Chevron up -->
  <symbol id="i-up" viewBox="0 0 24 24" fill="none" stroke="currentColor" stroke-width="2" stroke-linecap="round" stroke-linejoin="round">
    <path d="m5 15 7-7 7 7"/>
  </symbol>

  <!-- Wrench / infra -->
  <symbol id="i-wrench" viewBox="0 0 24 24" fill="none" stroke="currentColor" stroke-width="1.8" stroke-linecap="round" stroke-linejoin="round">
    <path d="M14.7 6.3a4.5 4.5 0 0 0-6 5.6L2.5 18a2 2 0 1 0 2.8 2.8l6.1-6.2a4.5 4.5 0 0 0 5.6-6L14 12l-2-2 3.3-3.7Z"/>
  </symbol>

  <!-- Zap -->
  <symbol id="i-zap" viewBox="0 0 24 24" fill="none" stroke="currentColor" stroke-width="1.8" stroke-linecap="round" stroke-linejoin="round">
    <path d="M13 2 4 14h6l-1 8 9-12h-6l1-8Z"/>
  </symbol>

  <!-- Shield -->
  <symbol id="i-shield" viewBox="0 0 24 24" fill="none" stroke="currentColor" stroke-width="1.8" stroke-linecap="round" stroke-linejoin="round">
    <path d="M12 22s8-3.6 8-10V5.6L12 2 4 5.6V12c0 6.4 8 10 8 10Z"/>
    <path d="m9 11.5 2.2 2.2L15.5 9"/>
  </symbol>

  <!-- Mail -->
  <symbol id="i-mail" viewBox="0 0 24 24" fill="none" stroke="currentColor" stroke-width="1.8" stroke-linecap="round" stroke-linejoin="round">
    <rect x="2.5" y="4.5" width="19" height="15" rx="2.5"/>
    <path d="m3.5 6.5 8.5 7 8.5-7"/>
  </symbol>

  <!-- Sparkles -->
  <symbol id="i-spark" viewBox="0 0 24 24" fill="none" stroke="currentColor" stroke-width="1.8" stroke-linecap="round" stroke-linejoin="round">
    <path d="M12 3v3M12 18v3M3 12h3M18 12h3M5.6 5.6l2.1 2.1M16.3 16.3l2.1 2.1M18.4 5.6l-2.1 2.1M7.7 16.3l-2.1 2.1"/>
    <circle cx="12" cy="12" r="2.6"/>
  </symbol>
</svg>
